<mxfile host="app.diagrams.net" modified="2023-10-12T20:51:01.564Z" agent="Mozilla/5.0 (Windows NT 10.0; Win64; x64) AppleWebKit/537.36 (KHTML, like Gecko) Chrome/117.0.0.0 Safari/537.36" etag="OLXjWYxbHRcz5WRVmiNr" version="22.0.4" type="github">
  <diagram name="PÃ¡gina-1" id="nOPdkyiY6gJSg_J8oElZ">
    <mxGraphModel dx="880" dy="478" grid="1" gridSize="10" guides="1" tooltips="1" connect="1" arrows="1" fold="1" page="1" pageScale="1" pageWidth="827" pageHeight="1169" math="0" shadow="0">
      <root>
        <mxCell id="0" />
        <mxCell id="1" parent="0" />
        <mxCell id="oFHX_Yy-RqOz9GhW-wfq-1" style="edgeStyle=orthogonalEdgeStyle;rounded=0;orthogonalLoop=1;jettySize=auto;html=1;exitX=0.5;exitY=1;exitDx=0;exitDy=0;exitPerimeter=0;" edge="1" parent="1" source="oFHX_Yy-RqOz9GhW-wfq-2" target="oFHX_Yy-RqOz9GhW-wfq-5">
          <mxGeometry relative="1" as="geometry" />
        </mxCell>
        <mxCell id="oFHX_Yy-RqOz9GhW-wfq-2" value="Inicio" style="strokeWidth=2;html=1;shape=mxgraph.flowchart.terminator;whiteSpace=wrap;fontSize=20;" vertex="1" parent="1">
          <mxGeometry x="340" y="50" width="100" height="60" as="geometry" />
        </mxCell>
        <mxCell id="oFHX_Yy-RqOz9GhW-wfq-3" style="edgeStyle=orthogonalEdgeStyle;rounded=0;orthogonalLoop=1;jettySize=auto;html=1;exitX=0.5;exitY=1;exitDx=0;exitDy=0;entryX=0.5;entryY=0;entryDx=0;entryDy=0;" edge="1" parent="1" source="oFHX_Yy-RqOz9GhW-wfq-5" target="oFHX_Yy-RqOz9GhW-wfq-7">
          <mxGeometry relative="1" as="geometry" />
        </mxCell>
        <mxCell id="oFHX_Yy-RqOz9GhW-wfq-4" style="edgeStyle=orthogonalEdgeStyle;rounded=0;orthogonalLoop=1;jettySize=auto;html=1;exitX=0;exitY=0.5;exitDx=0;exitDy=0;" edge="1" parent="1" source="oFHX_Yy-RqOz9GhW-wfq-5" target="oFHX_Yy-RqOz9GhW-wfq-10">
          <mxGeometry relative="1" as="geometry">
            <Array as="points">
              <mxPoint x="320" y="190" />
              <mxPoint x="320" y="310" />
              <mxPoint x="390" y="310" />
            </Array>
          </mxGeometry>
        </mxCell>
        <mxCell id="oFHX_Yy-RqOz9GhW-wfq-5" value="5" style="verticalLabelPosition=middle;verticalAlign=middle;html=1;shape=hexagon;perimeter=hexagonPerimeter2;arcSize=6;size=0.27;labelPosition=center;align=center;fontSize=16;" vertex="1" parent="1">
          <mxGeometry x="340" y="160" width="100" height="60" as="geometry" />
        </mxCell>
        <mxCell id="oFHX_Yy-RqOz9GhW-wfq-6" style="edgeStyle=orthogonalEdgeStyle;rounded=0;orthogonalLoop=1;jettySize=auto;html=1;exitX=0.5;exitY=1;exitDx=0;exitDy=0;entryX=1;entryY=0.5;entryDx=0;entryDy=0;" edge="1" parent="1" source="oFHX_Yy-RqOz9GhW-wfq-7" target="oFHX_Yy-RqOz9GhW-wfq-5">
          <mxGeometry relative="1" as="geometry">
            <Array as="points">
              <mxPoint x="390" y="300" />
              <mxPoint x="460" y="300" />
              <mxPoint x="460" y="190" />
            </Array>
          </mxGeometry>
        </mxCell>
        <mxCell id="oFHX_Yy-RqOz9GhW-wfq-7" value="move();" style="rounded=1;whiteSpace=wrap;html=1;absoluteArcSize=1;arcSize=14;strokeWidth=2;" vertex="1" parent="1">
          <mxGeometry x="340" y="240" width="100" height="40" as="geometry" />
        </mxCell>
        <mxCell id="oFHX_Yy-RqOz9GhW-wfq-8" style="edgeStyle=orthogonalEdgeStyle;rounded=0;orthogonalLoop=1;jettySize=auto;html=1;exitX=0.5;exitY=1;exitDx=0;exitDy=0;entryX=0.5;entryY=0;entryDx=0;entryDy=0;" edge="1" parent="1" source="oFHX_Yy-RqOz9GhW-wfq-10" target="oFHX_Yy-RqOz9GhW-wfq-13">
          <mxGeometry relative="1" as="geometry" />
        </mxCell>
        <mxCell id="oFHX_Yy-RqOz9GhW-wfq-9" style="edgeStyle=orthogonalEdgeStyle;rounded=0;orthogonalLoop=1;jettySize=auto;html=1;exitX=0;exitY=0.5;exitDx=0;exitDy=0;" edge="1" parent="1" source="oFHX_Yy-RqOz9GhW-wfq-10">
          <mxGeometry relative="1" as="geometry">
            <mxPoint x="390" y="640" as="targetPoint" />
            <Array as="points">
              <mxPoint x="300" y="350" />
              <mxPoint x="300" y="630" />
              <mxPoint x="390" y="630" />
            </Array>
          </mxGeometry>
        </mxCell>
        <mxCell id="oFHX_Yy-RqOz9GhW-wfq-10" value="2" style="verticalLabelPosition=middle;verticalAlign=middle;html=1;shape=hexagon;perimeter=hexagonPerimeter2;arcSize=6;size=0.27;labelPosition=center;align=center;fontSize=16;" vertex="1" parent="1">
          <mxGeometry x="340" y="320" width="100" height="60" as="geometry" />
        </mxCell>
        <mxCell id="oFHX_Yy-RqOz9GhW-wfq-11" style="edgeStyle=orthogonalEdgeStyle;rounded=0;orthogonalLoop=1;jettySize=auto;html=1;exitX=0.5;exitY=1;exitDx=0;exitDy=0;" edge="1" parent="1" source="oFHX_Yy-RqOz9GhW-wfq-13" target="oFHX_Yy-RqOz9GhW-wfq-18">
          <mxGeometry relative="1" as="geometry" />
        </mxCell>
        <mxCell id="oFHX_Yy-RqOz9GhW-wfq-12" style="edgeStyle=orthogonalEdgeStyle;rounded=0;orthogonalLoop=1;jettySize=auto;html=1;exitX=0;exitY=0.5;exitDx=0;exitDy=0;" edge="1" parent="1" source="oFHX_Yy-RqOz9GhW-wfq-13" target="oFHX_Yy-RqOz9GhW-wfq-15">
          <mxGeometry relative="1" as="geometry">
            <Array as="points">
              <mxPoint x="320" y="430" />
              <mxPoint x="320" y="550" />
              <mxPoint x="390" y="550" />
            </Array>
          </mxGeometry>
        </mxCell>
        <mxCell id="oFHX_Yy-RqOz9GhW-wfq-13" value="3" style="verticalLabelPosition=middle;verticalAlign=middle;html=1;shape=hexagon;perimeter=hexagonPerimeter2;arcSize=6;size=0.27;labelPosition=center;align=center;fontSize=16;" vertex="1" parent="1">
          <mxGeometry x="340" y="400" width="100" height="60" as="geometry" />
        </mxCell>
        <mxCell id="oFHX_Yy-RqOz9GhW-wfq-14" style="edgeStyle=orthogonalEdgeStyle;rounded=0;orthogonalLoop=1;jettySize=auto;html=1;exitX=0.5;exitY=1;exitDx=0;exitDy=0;entryX=1;entryY=0.5;entryDx=0;entryDy=0;" edge="1" parent="1" source="oFHX_Yy-RqOz9GhW-wfq-15" target="oFHX_Yy-RqOz9GhW-wfq-10">
          <mxGeometry relative="1" as="geometry">
            <Array as="points">
              <mxPoint x="390" y="620" />
              <mxPoint x="480" y="620" />
              <mxPoint x="480" y="350" />
            </Array>
          </mxGeometry>
        </mxCell>
        <mxCell id="oFHX_Yy-RqOz9GhW-wfq-15" value="move();" style="rounded=1;whiteSpace=wrap;html=1;absoluteArcSize=1;arcSize=14;strokeWidth=2;" vertex="1" parent="1">
          <mxGeometry x="340" y="560" width="100" height="40" as="geometry" />
        </mxCell>
        <mxCell id="oFHX_Yy-RqOz9GhW-wfq-16" value="Fin" style="strokeWidth=2;html=1;shape=mxgraph.flowchart.terminator;whiteSpace=wrap;fontSize=20;" vertex="1" parent="1">
          <mxGeometry x="340" y="960" width="100" height="60" as="geometry" />
        </mxCell>
        <mxCell id="oFHX_Yy-RqOz9GhW-wfq-17" style="edgeStyle=orthogonalEdgeStyle;rounded=0;orthogonalLoop=1;jettySize=auto;html=1;exitX=0.5;exitY=1;exitDx=0;exitDy=0;entryX=1;entryY=0.5;entryDx=0;entryDy=0;" edge="1" parent="1" source="oFHX_Yy-RqOz9GhW-wfq-18" target="oFHX_Yy-RqOz9GhW-wfq-13">
          <mxGeometry relative="1" as="geometry">
            <Array as="points">
              <mxPoint x="390" y="540" />
              <mxPoint x="460" y="540" />
              <mxPoint x="460" y="430" />
            </Array>
          </mxGeometry>
        </mxCell>
        <mxCell id="oFHX_Yy-RqOz9GhW-wfq-18" value="turnleft();" style="rounded=1;whiteSpace=wrap;html=1;absoluteArcSize=1;arcSize=14;strokeWidth=2;" vertex="1" parent="1">
          <mxGeometry x="340" y="480" width="100" height="40" as="geometry" />
        </mxCell>
        <mxCell id="oFHX_Yy-RqOz9GhW-wfq-19" style="edgeStyle=orthogonalEdgeStyle;rounded=0;orthogonalLoop=1;jettySize=auto;html=1;exitX=0.5;exitY=1;exitDx=0;exitDy=0;entryX=0.5;entryY=0;entryDx=0;entryDy=0;" edge="1" parent="1" source="oFHX_Yy-RqOz9GhW-wfq-21" target="oFHX_Yy-RqOz9GhW-wfq-24">
          <mxGeometry relative="1" as="geometry" />
        </mxCell>
        <mxCell id="oFHX_Yy-RqOz9GhW-wfq-20" style="edgeStyle=orthogonalEdgeStyle;rounded=0;orthogonalLoop=1;jettySize=auto;html=1;exitX=0;exitY=0.5;exitDx=0;exitDy=0;" edge="1" parent="1" source="oFHX_Yy-RqOz9GhW-wfq-21">
          <mxGeometry relative="1" as="geometry">
            <mxPoint x="390" y="960" as="targetPoint" />
            <Array as="points">
              <mxPoint x="300" y="670" />
              <mxPoint x="300" y="950" />
              <mxPoint x="390" y="950" />
            </Array>
          </mxGeometry>
        </mxCell>
        <mxCell id="oFHX_Yy-RqOz9GhW-wfq-21" value="4" style="verticalLabelPosition=middle;verticalAlign=middle;html=1;shape=hexagon;perimeter=hexagonPerimeter2;arcSize=6;size=0.27;labelPosition=center;align=center;fontSize=16;" vertex="1" parent="1">
          <mxGeometry x="340" y="640" width="100" height="60" as="geometry" />
        </mxCell>
        <mxCell id="oFHX_Yy-RqOz9GhW-wfq-22" style="edgeStyle=orthogonalEdgeStyle;rounded=0;orthogonalLoop=1;jettySize=auto;html=1;exitX=0.5;exitY=1;exitDx=0;exitDy=0;" edge="1" parent="1" source="oFHX_Yy-RqOz9GhW-wfq-24" target="oFHX_Yy-RqOz9GhW-wfq-28">
          <mxGeometry relative="1" as="geometry" />
        </mxCell>
        <mxCell id="oFHX_Yy-RqOz9GhW-wfq-23" style="edgeStyle=orthogonalEdgeStyle;rounded=0;orthogonalLoop=1;jettySize=auto;html=1;exitX=0;exitY=0.5;exitDx=0;exitDy=0;" edge="1" parent="1" source="oFHX_Yy-RqOz9GhW-wfq-24" target="oFHX_Yy-RqOz9GhW-wfq-26">
          <mxGeometry relative="1" as="geometry">
            <Array as="points">
              <mxPoint x="320" y="750" />
              <mxPoint x="320" y="870" />
              <mxPoint x="390" y="870" />
            </Array>
          </mxGeometry>
        </mxCell>
        <mxCell id="oFHX_Yy-RqOz9GhW-wfq-24" value="4" style="verticalLabelPosition=middle;verticalAlign=middle;html=1;shape=hexagon;perimeter=hexagonPerimeter2;arcSize=6;size=0.27;labelPosition=center;align=center;fontSize=16;" vertex="1" parent="1">
          <mxGeometry x="340" y="720" width="100" height="60" as="geometry" />
        </mxCell>
        <mxCell id="oFHX_Yy-RqOz9GhW-wfq-25" style="edgeStyle=orthogonalEdgeStyle;rounded=0;orthogonalLoop=1;jettySize=auto;html=1;exitX=0.5;exitY=1;exitDx=0;exitDy=0;entryX=1;entryY=0.5;entryDx=0;entryDy=0;" edge="1" parent="1" source="oFHX_Yy-RqOz9GhW-wfq-26" target="oFHX_Yy-RqOz9GhW-wfq-21">
          <mxGeometry relative="1" as="geometry">
            <Array as="points">
              <mxPoint x="390" y="940" />
              <mxPoint x="480" y="940" />
              <mxPoint x="480" y="670" />
            </Array>
          </mxGeometry>
        </mxCell>
        <mxCell id="oFHX_Yy-RqOz9GhW-wfq-26" value="move();" style="rounded=1;whiteSpace=wrap;html=1;absoluteArcSize=1;arcSize=14;strokeWidth=2;" vertex="1" parent="1">
          <mxGeometry x="340" y="880" width="100" height="40" as="geometry" />
        </mxCell>
        <mxCell id="oFHX_Yy-RqOz9GhW-wfq-27" style="edgeStyle=orthogonalEdgeStyle;rounded=0;orthogonalLoop=1;jettySize=auto;html=1;exitX=0.5;exitY=1;exitDx=0;exitDy=0;entryX=1;entryY=0.5;entryDx=0;entryDy=0;" edge="1" parent="1" source="oFHX_Yy-RqOz9GhW-wfq-28" target="oFHX_Yy-RqOz9GhW-wfq-24">
          <mxGeometry relative="1" as="geometry">
            <Array as="points">
              <mxPoint x="390" y="860" />
              <mxPoint x="460" y="860" />
              <mxPoint x="460" y="750" />
            </Array>
          </mxGeometry>
        </mxCell>
        <mxCell id="oFHX_Yy-RqOz9GhW-wfq-28" value="turnleft();" style="rounded=1;whiteSpace=wrap;html=1;absoluteArcSize=1;arcSize=14;strokeWidth=2;" vertex="1" parent="1">
          <mxGeometry x="340" y="800" width="100" height="40" as="geometry" />
        </mxCell>
      </root>
    </mxGraphModel>
  </diagram>
</mxfile>
